<svg version="1.1" viewBox="0.0 0.0 480.0 480.0" fill="none" stroke="none" stroke-linecap="square" stroke-miterlimit="10" xmlns:xlink="http://www.w3.org/1999/xlink" xmlns="http://www.w3.org/2000/svg"><clipPath id="g2bd233d577d_0_85.0"><path d="m0 0l480.0 0l0 480.0l-480.0 0l0 -480.0z" clip-rule="nonzero"/></clipPath><g clip-path="url(#g2bd233d577d_0_85.0)"><path fill="#000000" fill-opacity="0.0" d="m0 0l480.0 0l0 480.0l-480.0 0z" fill-rule="evenodd"/><path fill="#df4649" d="m240.65282 99.62934c-13.469131 -0.80890656 -44.950806 -6.9525986 -69.54045 -3.8807526c-24.589645 3.071846 -54.66102 7.600235 -77.99741 22.311821c-23.336395 14.711594 -48.238533 44.29518 -62.020973 65.95769c-13.782438 21.66249 -17.070984 38.798294 -20.673656 64.0173c-3.6026745 25.219025 -6.110803 62.239044 -0.94238853 87.29678c5.168414 25.05774 16.447632 46.39853 31.952877 63.049652c15.505241 16.651123 39.935364 28.289154 61.078583 36.857056c21.143219 8.567902 44.79293 13.256714 65.78071 14.5503235c20.987793 1.2935791 45.423645 -6.1419983 60.14601 -6.788788c14.722382 -0.64682007 12.996307 1.7765503 28.188248 2.90802c15.191925 1.1314697 42.915497 5.982422 62.96335 3.8807678c20.047852 -2.101654 36.336792 -5.336487 57.32376 -16.490692c20.986969 -11.154236 53.092804 -29.25769 68.59805 -50.43466c15.505249 -21.176971 21.613586 -51.246094 24.43341 -76.62723c2.8197937 -25.381134 -0.62335205 -52.0567 -7.5145874 -75.65958c-6.891205 -23.602875 -18.953308 -47.042786 -33.832733 -65.95769c-14.879456 -18.914886 -36.179718 -37.023407 -55.44388 -47.531677c-19.26419 -10.508278 -39.93701 -12.770363 -60.141113 -15.517967c-20.204102 -2.7476044 -49.023865 -0.6442642 -61.083496 -0.967659c-12.059631 -0.32339478 2.1948242 -0.16381073 -11.274307 -0.9727249z" fill-rule="evenodd"/><path fill="#a24d27" d="m206.87112 45.106125c-0.09980774 15.516277 13.332504 74.37697 18.042816 89.9971c4.710312 15.620132 6.411026 20.274338 10.21904 3.723709c3.8079987 -16.550636 14.232361 -86.89064 12.628983 -103.027534c-1.603363 -16.136892 -15.434067 4.655052 -22.249207 6.206173c-6.81514 1.5511208 -18.54184 -12.415722 -18.641632 3.1005516z" fill-rule="evenodd"/><path fill="#6ed07a" d="m229.63799 138.82445c-1.0021057 -10.551346 -4.710312 -47.168602 7.215164 -62.684883c11.925476 -15.5162735 53.914948 -35.067825 64.33768 -30.412777c10.4227295 4.655052 7.9194946 42.722958 -1.8013306 58.34309c-9.720825 15.620132 -44.898453 29.585289 -56.523697 35.377724c-11.625259 5.7924194 -12.225708 9.928177 -13.227814 -0.6231537z" fill-rule="evenodd"/><path fill="#bc3437" d="m378.29065 392.89337c0.36791992 -3.013855 15.360199 -7.1942444 25.49704 -18.58786c10.13681 -11.393616 28.010376 -34.812073 35.323822 -49.773895c7.313446 -14.9618225 6.339905 -37.69464 8.556824 -39.99695c2.2168884 -2.3023376 6.315399 14.693329 4.744568 26.183014c-1.5708313 11.489655 -5.69751 29.143219 -14.169617 42.755005c-8.472137 13.611816 -26.67102 32.345703 -36.663116 38.915833c-9.992126 6.570099 -23.65744 3.5186768 -23.28952 0.5048523z" fill-rule="evenodd"/><path fill="#60b26a" d="m232.64166 142.54826c-1.904419 0 2.60466 -22.860664 10.822739 -35.377716c8.218094 -12.517044 36.581375 -39.72457 38.485794 -39.72457c1.904419 0 -18.841248 27.207527 -27.059326 39.72457c-8.218094 12.517052 -20.344803 35.377716 -22.249207 35.377716z" fill-rule="evenodd"/><path fill="#bc3437" d="m183.94263 129.51472c2.0042114 -1.4481049 11.322571 8.691177 22.848022 10.553024c11.525452 1.8618469 33.87773 3.2044067 46.304672 0.61808777c12.426926 -2.5863342 25.851883 -16.653656 28.256943 -16.136047c2.4050598 0.517601 -6.1099854 13.862137 -13.826599 19.241669c-7.7166443 5.3795166 -20.34645 12.208008 -32.47316 13.035492c-12.126724 0.82748413 -31.768814 -3.5185242 -40.28714 -8.070557c-8.518311 -4.5520325 -12.82695 -17.793564 -10.822739 -19.241669z" fill-rule="evenodd"/></g></svg>