<svg version="1.1" viewBox="0.0 0.0 480.0 480.0" fill="none" stroke="none" stroke-linecap="square" stroke-miterlimit="10" xmlns:xlink="http://www.w3.org/1999/xlink" xmlns="http://www.w3.org/2000/svg"><clipPath id="g2c1375f6628_0_0.0"><path d="m0 0l480.0 0l0 480.0l-480.0 0l0 -480.0z" clip-rule="nonzero"/></clipPath><g clip-path="url(#g2c1375f6628_0_0.0)"><path fill="#000000" fill-opacity="0.0" d="m0 0l480.0 0l0 480.0l-480.0 0z" fill-rule="evenodd"/><path fill="#000000" fill-opacity="0.0" d="m403.7167 49.382736l1.6693115 0l0 4.8818893l-1.6693115 0z" fill-rule="evenodd"/><path fill="#eb620e" d="m72.9606 134.75386c-0.6982956 58.326416 29.337776 233.30498 50.293335 289.18665c20.955551 55.881714 38.418304 40.515198 75.44 46.103546c37.021698 5.588379 117.35242 4.5402527 146.69022 -12.573334c29.337769 -17.113586 19.557617 -34.925476 29.336456 -90.108215c9.778809 -55.18274 42.25894 -188.59935 29.336456 -240.98824c-12.922485 -52.388893 -72.644165 -59.37452 -106.87137 -73.34511c-34.227173 -13.970589 -70.20143 -13.970589 -98.49176 -10.4784355c-28.290329 3.4921532 -50.294662 16.064167 -71.25021 31.431355c-20.955551 15.3671875 -53.78482 2.445366 -54.483124 60.771767z" fill-rule="evenodd"/><path stroke="#ffffff" stroke-width="1.0" stroke-linejoin="round" stroke-linecap="butt" d="m72.9606 134.75386c-0.6982956 58.326416 29.337776 233.30498 50.293335 289.18665c20.955551 55.881714 38.418304 40.515198 75.44 46.103546c37.021698 5.588379 117.35242 4.5402527 146.69022 -12.573334c29.337769 -17.113586 19.557617 -34.925476 29.336456 -90.108215c9.778809 -55.18274 42.25894 -188.59935 29.336456 -240.98824c-12.922485 -52.388893 -72.644165 -59.37452 -106.87137 -73.34511c-34.227173 -13.970589 -70.20143 -13.970589 -98.49176 -10.4784355c-28.290329 3.4921532 -50.294662 16.064167 -71.25021 31.431355c-20.955551 15.3671875 -53.78482 2.445366 -54.483124 60.771767z" fill-rule="evenodd"/><path fill="#eb620e" d="m214.86044 35.24017l0 0c0 -15.637922 11.252823 -28.31496 25.133865 -28.31496l0 0c6.665909 0 13.058807 2.9831743 17.772324 8.29326c4.713501 5.3100853 7.3615417 12.512106 7.3615417 20.021702l0 0c0 15.63792 -11.252823 28.31496 -25.133865 28.31496l0 0c-13.8810425 0 -25.133865 -12.67704 -25.133865 -28.31496z" fill-rule="evenodd"/><path fill="#fed8c0" d="m98.10574 132.65973c-5.9375153 24.098572 7.682602 103.72836 16.763123 155.0698c9.080521 51.34143 25.84497 126.43494 37.72 152.97885c11.8750305 26.543945 29.688248 20.953583 33.530212 6.2846985c3.8419647 -14.668884 -7.6845856 -48.1958 -10.478439 -94.298035c-2.7938538 -46.102203 -2.0935822 -147.38916 -6.284683 -182.3153c-4.1911163 -34.926147 -6.9869537 -20.954895 -18.861984 -27.241562c-11.8750305 -6.286667 -46.450714 -34.576996 -52.38823 -10.478439z" fill-rule="evenodd"/><path fill="#fed8c0" d="m380.45844 132.6585c5.9375 24.098557 -7.682617 103.72835 -16.763123 155.06978c-9.080536 51.34146 -25.84497 126.43494 -37.72 152.97888c-11.8750305 26.543915 -29.688263 20.953552 -33.530212 6.284668c-3.84198 -14.668884 7.6845703 -48.1958 10.478424 -94.298004c2.7938538 -46.102234 2.0935974 -147.38918 6.2846985 -182.31532c4.191101 -34.926147 6.9869385 -20.954895 18.861969 -27.241562c11.8750305 -6.286667 46.450714 -34.576996 52.388245 -10.478439z" fill-rule="evenodd"/><path fill="#fed8c0" d="m194.50363 155.71057c7.683258 0.6983032 31.780502 3.8406372 46.09958 4.189789c14.319077 0.3491516 32.829285 -12.572678 39.81491 -2.0948944c6.9855957 10.477783 4.194397 19.906784 2.0988464 64.96156c-2.0955505 45.05478 -4.543579 166.94812 -14.67218 205.3671c-10.128632 38.418945 -34.57437 37.72 -46.099594 25.146667c-11.525223 -12.573334 -19.209808 -83.822235 -23.051773 -100.58667" fill-rule="evenodd"/></g></svg>