<svg version="1.1" viewBox="0.0 0.0 480.0 480.0" fill="none" stroke="none" stroke-linecap="square" stroke-miterlimit="10" xmlns:xlink="http://www.w3.org/1999/xlink" xmlns="http://www.w3.org/2000/svg"><clipPath id="g2c02cd5e48c_0_20.0"><path d="m0 0l480.0 0l0 480.0l-480.0 0l0 -480.0z" clip-rule="nonzero"/></clipPath><g clip-path="url(#g2c02cd5e48c_0_20.0)"><path fill="#000000" fill-opacity="0.0" d="m0 0l480.0 0l0 480.0l-480.0 0z" fill-rule="evenodd"/><path fill="#000000" fill-opacity="0.0" d="m361.532 136.57062l1.4803162 0l0 4.37796l-1.4803162 0z" fill-rule="evenodd"/><path fill="#fed8c0" d="m95.319534 323.1555c39.415833 -72.67941 147.33865 -246.4029 197.07738 -293.43115c49.73874 -47.028248 84.462524 -4.3799305 101.35501 11.261665c16.892517 15.641598 14.70282 47.86415 0 82.58792c-14.70282 34.723763 -63.81671 89.36324 -88.21698 125.75469c-24.400269 36.391434 -39.10251 65.69127 -58.184677 92.59395c-19.082184 26.90268 -38.164352 52.24231 -56.308334 68.82208c-18.143997 16.579773 -30.032303 21.48053 -52.555634 30.656555c-22.52333 9.176056 -75.38991 44.10733 -82.58437 24.399689c-7.194458 -19.707611 0.0017738342 -69.96597 39.41761 -142.64542z" fill-rule="evenodd"/><path stroke="#eb620e" stroke-width="4.0" stroke-linejoin="round" stroke-linecap="butt" d="m95.319534 323.1555c39.415833 -72.67941 147.33865 -246.4029 197.07738 -293.43115c49.73874 -47.028248 84.462524 -4.3799305 101.35501 11.261665c16.892517 15.641598 14.70282 47.86415 0 82.58792c-14.70282 34.723763 -63.81671 89.36324 -88.21698 125.75469c-24.400269 36.391434 -39.10251 65.69127 -58.184677 92.59395c-19.082184 26.90268 -38.164352 52.24231 -56.308334 68.82208c-18.143997 16.579773 -30.032303 21.48053 -52.555634 30.656555c-22.52333 9.176056 -75.38991 44.10733 -82.58437 24.399689c-7.194458 -19.707611 0.0017738342 -69.96597 39.41761 -142.64542z" fill-rule="evenodd"/><path fill="#eb620e" d="m127.22394 270.59805c32.846237 -52.659073 120.75108 -202.60654 165.1723 -240.87552c44.421204 -38.268974 84.462494 -4.3799305 101.35498 11.261665c16.892517 15.641598 14.70285 47.86415 0 82.58792c-14.70282 34.72377 -63.81668 89.36325 -88.21698 125.754684c-24.400269 36.39145 -39.10251 65.691284 -58.184677 92.59396c-19.082169 26.90268 -41.29277 61.627014 -56.308334 68.82208c-15.015549 7.195038 -17.831268 -14.807465 -33.78499 -25.651764c-15.953735 -10.84433 -56.932014 -20.33191 -61.9374 -39.414062c-5.0053787 -19.082184 -0.9411316 -22.419891 31.905098 -75.07898z" fill-rule="evenodd"/><path stroke="#eb620e" stroke-width="4.0" stroke-linejoin="round" stroke-linecap="butt" d="m127.22394 270.59805c32.846237 -52.659073 120.75108 -202.60654 165.1723 -240.87552c44.421204 -38.268974 84.462494 -4.3799305 101.35498 11.261665c16.892517 15.641598 14.70285 47.86415 0 82.58792c-14.70282 34.72377 -63.81668 89.36325 -88.21698 125.754684c-24.400269 36.39145 -39.10251 65.691284 -58.184677 92.59396c-19.082169 26.90268 -41.29277 61.627014 -56.308334 68.82208c-15.015549 7.195038 -17.831268 -14.807465 -33.78499 -25.651764c-15.953735 -10.84433 -56.932014 -20.33191 -61.9374 -39.414062c-5.0053787 -19.082184 -0.9411316 -22.419891 31.905098 -75.07898z" fill-rule="evenodd"/><path fill="#eb620e" d="m57.23914 419.86194c-4.3509636 2.559723 -4.351555 20.730927 -4.6075287 27.641632c-0.25597382 6.9107056 2.176075 10.239532 3.0716858 13.822571c0.8956146 3.5830383 0.25419998 6.012146 2.3019905 7.6756897c2.0477905 1.6635132 5.2495346 2.94516 9.984756 2.3055115c4.735222 -0.6396179 11.516457 -3.711914 18.426567 -6.1433716c6.9101105 -2.4314575 24.313965 -2.9421997 23.034096 -8.445343c-1.2798691 -5.5031433 -22.011383 -18.430725 -30.71331 -24.573486c-8.701927 -6.1427917 -17.147293 -14.842957 -21.498257 -12.283203z" fill-rule="evenodd"/><path stroke="#eb620e" stroke-width="1.0" stroke-linejoin="round" stroke-linecap="butt" d="m57.23914 419.86194c-4.3509636 2.559723 -4.351555 20.730927 -4.6075287 27.641632c-0.25597382 6.9107056 2.176075 10.239532 3.0716858 13.822571c0.8956146 3.5830383 0.25419998 6.012146 2.3019905 7.6756897c2.0477905 1.6635132 5.2495346 2.94516 9.984756 2.3055115c4.735222 -0.6396179 11.516457 -3.711914 18.426567 -6.1433716c6.9101105 -2.4314575 24.313965 -2.9421997 23.034096 -8.445343c-1.2798691 -5.5031433 -22.011383 -18.430725 -30.71331 -24.573486c-8.701927 -6.1427917 -17.147293 -14.842957 -21.498257 -12.283203z" fill-rule="evenodd"/></g></svg>