<svg version="1.1" viewBox="0.0 0.0 480.0 480.0" fill="none" stroke="none" stroke-linecap="square" stroke-miterlimit="10" xmlns:xlink="http://www.w3.org/1999/xlink" xmlns="http://www.w3.org/2000/svg"><clipPath id="p.0"><path d="m0 0l480.0 0l0 480.0l-480.0 0l0 -480.0z" clip-rule="nonzero"/></clipPath><g clip-path="url(#p.0)"><path fill="#000000" fill-opacity="0.0" d="m0 0l480.0 0l0 480.0l-480.0 0z" fill-rule="evenodd"/><path fill="#eb620e" d="m130.32639 54.330177c-33.775192 40.95845 -95.04812 131.89813 -106.30631 191.62134c-11.258193 59.723206 3.6901875 127.92557 38.757164 166.71793c35.06698 38.79236 114.61371 61.70587 171.64468 66.036224c57.03099 4.3303833 135.10448 -5.4115906 170.54115 -40.053986c35.436676 -34.642395 49.64627 -105.37103 42.078888 -167.80035c-7.567383 -62.42932 -50.75476 -161.66711 -87.483215 -206.77554c-36.728455 -45.10842 -94.68213 -62.250717 -132.88751 -63.874985c-38.2054 -1.6242676 -62.569656 13.170927 -96.34485 54.12938z" fill-rule="evenodd"/><path fill="#f28847" d="m303.0829 21.85374c31.5607 15.697231 58.507904 45.107815 79.73251 80.11163c21.224579 35.003807 58.50482 108.25936 47.61508 129.91122c-10.88974 21.65187 -89.51376 16.780273 -112.95346 0c-23.439697 -16.780273 1.1072388 -79.571014 -27.684753 -100.681656c-28.791992 -21.110657 -129.01033 -5.4134216 -145.06718 -25.982254c-16.056854 -20.568825 22.333084 -83.53755 48.726044 -97.43071c26.39296 -13.893159 78.07103 -1.6254745 109.63176 14.071756z" fill-rule="evenodd"/><path fill="#f28847" d="m81.60095 249.4099c-19.748894 10.465408 -41.8962 71.45268 -28.791985 92.02211c13.10421 20.569427 87.66836 41.859894 107.41726 31.39447c19.748901 -10.465424 24.180328 -73.617584 11.076126 -94.18701c-13.104218 -20.569427 -69.9525 -39.694992 -89.7014 -29.229568z" fill-rule="evenodd"/><path fill="#f28847" d="m140.9684 401.35263c-5.4743958 2.0145874 -11.613632 13.754639 -7.98114 17.714264c3.6324768 3.9596252 24.301666 8.058014 29.776062 6.0434265c5.4743958 -2.0145874 6.7027893 -14.171387 3.0702972 -18.130981c-3.632492 -3.9596252 -19.390823 -7.6412964 -24.86522 -5.626709z" fill-rule="evenodd"/></g></svg>