<svg version="1.1" viewBox="0.0 0.0 480.0 480.0" fill="none" stroke="none" stroke-linecap="square" stroke-miterlimit="10" xmlns:xlink="http://www.w3.org/1999/xlink" xmlns="http://www.w3.org/2000/svg"><clipPath id="g2c015b8fff0_0_0.0"><path d="m0 0l480.0 0l0 480.0l-480.0 0l0 -480.0z" clip-rule="nonzero"/></clipPath><g clip-path="url(#g2c015b8fff0_0_0.0)"><path fill="#000000" fill-opacity="0.0" d="m0 0l480.0 0l0 480.0l-480.0 0z" fill-rule="evenodd"/><path fill="#bc3437" d="m157.40793 106.05439c-8.862503 26.292015 -20.975891 77.99009 -31.90628 108.12292c-10.930374 30.132812 -26.586433 44.314087 -33.676003 72.67398c-7.0895767 28.359894 -17.428452 70.89786 -8.861435 97.48535c8.567009 26.587494 30.72219 47.268433 60.263496 62.03961c29.54132 14.771179 79.76196 29.54184 116.98436 26.587494c37.22238 -2.9543457 83.01178 -21.861816 106.349976 -44.313538c23.338196 -22.451752 34.270172 -59.673615 33.6792 -90.39685c-0.5909729 -30.723267 -21.27243 -63.514954 -37.225037 -93.9427c-15.952606 -30.42778 -44.310913 -57.60518 -58.4906 -88.62393c-14.179657 -31.018745 -19.792877 -72.67345 -26.587494 -97.488556c-6.7946167 -24.815102 -9.748962 -49.334187 -14.180206 -51.402065c-4.431244 -2.067881 -2.3628235 22.156248 -12.407288 38.99478c-10.044449 16.838535 -35.74707 60.264038 -47.859406 62.03643c-12.11232 1.7723923 -17.134018 -51.106583 -24.81456 -51.40207c-7.6805573 -0.29549026 -12.406235 23.337135 -21.268723 49.629143z" fill-rule="evenodd"/><path fill="#eb620e" d="m167.01265 198.52296c-7.8317413 19.680588 -18.536285 58.378616 -28.195389 80.93422c-9.659119 22.555573 -23.494278 33.170807 -29.759293 54.399292c-6.2650146 21.228485 -15.401413 53.069824 -7.8307953 72.97159c7.5706177 19.901794 27.149017 35.382263 53.2545 46.439087c26.105484 11.056793 70.48517 22.11322 103.37837 19.901764c32.89322 -2.2114258 73.357025 -16.36441 93.980865 -33.17041c20.62384 -16.806 30.284363 -44.668 29.762115 -67.66556c-0.5222473 -22.997559 -18.79834 -47.543427 -32.89557 -70.31979c-14.0971985 -22.776367 -39.157288 -43.11972 -51.687775 -66.338455c-12.530487 -23.218735 -17.490845 -54.39891 -23.495209 -72.97398c-6.004364 -18.575073 -8.615112 -36.92856 -12.530975 -38.476448c-3.915863 -1.5478897 -2.0880127 16.584816 -10.964249 29.18911c-8.876221 12.604309 -31.589478 45.109985 -42.293076 46.43669c-10.703598 1.3267059 -15.141235 -38.255264 -21.928482 -38.476456c-6.787262 -0.22117615 -10.963318 17.468765 -18.795044 37.149353z" fill-rule="evenodd"/><path fill="#f2b821" d="m186.42351 281.94272c-5.749054 13.714081 -13.606964 40.680145 -20.697449 56.397644c-7.0904846 15.717468 -17.24649 23.114502 -21.845474 37.907227c-4.5989685 14.792694 -11.30574 36.980804 -5.7483673 50.84903c5.5573883 13.868195 19.929352 24.655518 39.09265 32.36026c19.163315 7.7047424 51.74121 15.409241 75.88721 13.868225c24.14598 -1.5410156 53.84938 -11.403259 68.988754 -23.114258c15.139374 -11.710968 22.230896 -31.12613 21.847534 -47.15161c-0.38336182 -16.025452 -13.799347 -33.12979 -24.147705 -49.00113c-10.348389 -15.871338 -28.744293 -30.047241 -37.942596 -46.226837c-9.198273 -16.179596 -12.839539 -37.90695 -17.247162 -50.850677c-4.407654 -12.943726 -6.324127 -25.733047 -9.198639 -26.81166c-2.8745422 -1.0786285 -1.5327759 11.556839 -8.048553 20.339935c-6.515793 8.783096 -23.188965 31.434128 -31.046173 32.358627c-7.8572235 0.924469 -11.114761 -26.657532 -16.097107 -26.811676c-4.9823303 -0.15412903 -8.047852 12.172821 -13.796921 25.886902z" fill-rule="evenodd"/></g></svg>