<svg version="1.1" viewBox="0.0 0.0 480.0 480.0" fill="none" stroke="none" stroke-linecap="square" stroke-miterlimit="10" xmlns:xlink="http://www.w3.org/1999/xlink" xmlns="http://www.w3.org/2000/svg"><clipPath id="g2bd233d577d_0_5.0"><path d="m0 0l480.0 0l0 480.0l-480.0 0l0 -480.0z" clip-rule="nonzero"/></clipPath><g clip-path="url(#g2bd233d577d_0_5.0)"><path fill="#000000" fill-opacity="0.0" d="m0 0l480.0 0l0 480.0l-480.0 0z" fill-rule="evenodd"/><path fill="#f28847" d="m264.51013 29.130774c43.000916 6.6884212 119.079315 25.082525 148.8497 70.23408c29.770386 45.15155 55.40805 149.67085 29.772614 200.67525c-25.635406 51.004395 -122.80441 94.06363 -183.58517 105.351135c-60.780746 11.287506 -142.23332 -2.0908508 -181.09929 -37.626038c-38.865967 -35.535217 -64.91422 -124.16341 -52.096508 -175.58522c12.817715 -51.421814 89.30968 -105.77079 129.00279 -132.94566c39.693115 -27.17487 66.15494 -36.79197 109.15587 -30.103544z" fill-rule="evenodd"/><path fill="#ffffff" d="m153.62888 164.21602l0 0c0 -23.513733 19.278397 -42.575386 43.05951 -42.575386l0 0c11.42009 0 22.372452 4.485611 30.447678 12.470039c8.075226 7.984436 12.611832 18.81366 12.611832 30.105347l0 0c0 23.513748 -19.278397 42.57541 -43.05951 42.57541l0 0c-23.781113 0 -43.05951 -19.06166 -43.05951 -42.57541z" fill-rule="evenodd"/><path fill="#000000" d="m174.85437 164.21602l0 0c0 -11.923019 9.775421 -21.588531 21.834015 -21.588531l0 0c5.790741 0 11.344315 2.2745056 15.43898 6.3231354c4.094681 4.0486298 6.39505 9.539764 6.39505 15.265396l0 0c0 11.923035 -9.775436 21.588547 -21.83403 21.588547l0 0c-12.058594 0 -21.834015 -9.665512 -21.834015 -21.588547z" fill-rule="evenodd"/><path fill="#ffffff" d="m190.73293 156.84737l0 0c0 -6.3802185 5.2309875 -11.552399 11.683746 -11.552399l0 0c3.0987244 0 6.0705414 1.2171173 8.261673 3.3836212c2.1911163 2.1664886 3.4220886 5.104889 3.4220886 8.168777l0 0c0 6.3802032 -5.231003 11.552399 -11.683762 11.552399l0 0c-6.452759 0 -11.683746 -5.1721954 -11.683746 -11.552399z" fill-rule="evenodd"/><path fill="#ffffff" d="m249.92656 164.21602l0 0c0 -23.513733 19.278397 -42.575386 43.059525 -42.575386l0 0c11.420074 0 22.372437 4.485611 30.447662 12.470039c8.075226 7.984436 12.611847 18.81366 12.611847 30.105347l0 0c0 23.513748 -19.278412 42.57541 -43.05951 42.57541l0 0c-23.781128 0 -43.059525 -19.06166 -43.059525 -42.57541z" fill-rule="evenodd"/><path fill="#000000" d="m271.15204 164.21602l0 0c0 -11.923019 9.775452 -21.588531 21.834045 -21.588531l0 0c5.790741 0 11.344299 2.2745056 15.438965 6.3231354c4.0946655 4.0486298 6.39505 9.539764 6.39505 15.265396l0 0c0 11.923035 -9.775421 21.588547 -21.834015 21.588547l0 0c-12.058594 0 -21.834045 -9.665512 -21.834045 -21.588547z" fill-rule="evenodd"/><path fill="#ffffff" d="m287.0306 156.84737l0 0c0 -6.3802185 5.2309875 -11.552399 11.683746 -11.552399l0 0c3.0987244 0 6.070526 1.2171173 8.261658 3.3836212c2.1911316 2.1664886 3.4220886 5.104889 3.4220886 8.168777l0 0c0 6.3802032 -5.2309875 11.552399 -11.683746 11.552399l0 0c-6.452759 0 -11.683746 -5.1721954 -11.683746 -11.552399z" fill-rule="evenodd"/><path fill="#000000" d="m199.95117 243.19418c8.8628845 -8.517899 80.92624 -0.7394104 86.47601 9.3341675c5.5498047 10.073578 -38.764633 52.663025 -53.177307 51.10733c-14.412674 -1.5556946 -42.16159 -51.923615 -33.298706 -60.441498z" fill-rule="evenodd"/></g></svg>