<svg version="1.1" viewBox="0.0 0.0 480.0 480.0" fill="none" stroke="none" stroke-linecap="square" stroke-miterlimit="10" xmlns:xlink="http://www.w3.org/1999/xlink" xmlns="http://www.w3.org/2000/svg"><clipPath id="g2bd233d577d_0_23.0"><path d="m0 0l480.0 0l0 480.0l-480.0 0l0 -480.0z" clip-rule="nonzero"/></clipPath><g clip-path="url(#g2bd233d577d_0_23.0)"><path fill="#000000" fill-opacity="0.0" d="m0 0l480.0 0l0 480.0l-480.0 0z" fill-rule="evenodd"/><path fill="#eb620e" d="m318.60635 145.15146c7.9519653 -4.453659 34.142456 -2.5022736 47.812927 -7.824814c13.670471 -5.3225403 23.84674 -17.84748 34.2099 -24.11045c10.363129 -6.2629623 23.966522 -13.575203 27.968964 -13.467354c4.0024414 0.10784912 -7.532135 12.377251 -3.9542542 14.114433c3.5778809 1.7371902 18.862549 -8.071419 25.421509 -3.6912994c6.55896 4.380127 14.883514 19.618645 13.932251 29.972038c-0.9512634 10.353394 -12.835846 22.518066 -19.639832 32.148285c-6.8039856 9.630234 -11.860382 18.753967 -21.184052 25.633057c-9.323639 6.8791046 -17.346863 21.28769 -34.757904 15.641556c-17.411041 -5.6461334 -58.073395 -38.115753 -69.70831 -49.51834c-11.634918 -11.402573 -8.053162 -14.443451 -0.10119629 -18.89711z" fill-rule="evenodd"/><path fill="#eb620e" d="m109.26832 166.5653c-7.9578094 5.8197327 -21.33567 33.66919 -33.21425 44.89322c-11.878586 11.22403 -27.332188 15.106277 -38.057247 22.450958c-10.7250595 7.344696 -24.101717 17.460648 -26.29311 21.617188c-2.1913939 4.156555 13.836862 -1.2506561 13.144748 3.322052c-0.6921139 4.572693 -16.951677 15.106995 -17.297432 24.114136c-0.34575605 9.007172 6.6886296 25.495087 15.222897 29.928833c8.534267 4.4337463 24.680586 -1.3867188 35.98271 -3.3263855c11.30212 -1.9396667 21.220013 -2.3536682 31.83002 -8.3116455c10.610008 -5.957947 26.29432 -6.6506042 31.830025 -27.436188c5.535713 -20.785583 3.5756226 -79.40198 1.3842316 -97.27734c-2.1913986 -17.875366 -6.5747833 -15.794556 -14.532593 -9.974823z" fill-rule="evenodd"/><path fill="#f28847" d="m235.73917 67.00798c-29.523575 3.3256607 -65.27498 13.996742 -89.26285 37.415367c-23.98787 23.418617 -44.746475 63.327324 -54.664368 103.09635c-9.917892 39.769028 -8.994476 98.24284 -4.8429947 135.5178c4.1514816 37.274933 2.9961472 67.90076 29.751877 88.13193c26.75573 20.231201 83.49824 34.22577 130.78247 33.25522c47.28424 -0.97055054 125.1293 -8.870361 152.92291 -39.078552c27.79358 -30.20819 15.683685 -97.967834 13.838654 -142.1706c-1.8450317 -44.20276 -9.801025 -89.9283 -24.908875 -123.04599c-15.107849 -33.1177 -40.135406 -60.139908 -65.73819 -75.660164c-25.602814 -15.520256 -58.35504 -20.78704 -87.87863 -17.461372z" fill-rule="evenodd"/><path fill="#f28847" d="m221.3653 76.77493c-17.875702 -8.452759 -31.59932 -56.257668 -31.830032 -60.691402c-0.23069763 -4.4337387 22.718689 31.317707 30.4458 34.088978c7.7270966 2.771267 13.03331 -17.461376 15.916809 -17.461376c2.8835144 0 -8.41861 14.690105 1.3842316 17.461376c9.802841 2.771267 51.089966 -2.2190437 57.43283 -0.83377075c6.342865 1.385273 -19.721344 6.2351723 -19.37558 9.145401c0.34576416 2.9102287 30.4458 5.2675056 21.450104 8.315971c-8.9956665 3.0484695 -57.548477 18.42759 -75.424164 9.974823z" fill-rule="evenodd"/><path fill="#ffffff" d="m163.97575 200.9466l0 0c0 -25.45578 17.174728 -46.091766 38.36084 -46.091766l0 0c10.17392 0 19.931152 4.856079 27.125198 13.4999695c7.1940613 8.643875 11.2356415 20.367493 11.2356415 32.591797l0 0c0 25.45578 -17.174744 46.091766 -38.36084 46.091766l0 0c-21.186111 0 -38.36084 -20.635986 -38.36084 -46.091766z" fill-rule="evenodd"/><path fill="#000000" d="m182.88512 200.9466l0 0c0 -12.907761 8.708725 -23.371582 19.451477 -23.371582l0 0c5.158844 0 10.106415 2.4623566 13.754272 6.8453827c3.6478577 4.383026 5.6972046 10.327667 5.6972046 16.5262l0 0c0 12.907761 -8.708725 23.371582 -19.451477 23.371582l0 0c-10.742752 0 -19.451477 -10.463821 -19.451477 -23.371582z" fill-rule="evenodd"/><path fill="#ffffff" d="m197.03099 192.96935l0 0c0 -6.9071655 4.660187 -12.506531 10.408813 -12.506531l0 0c2.7605896 0 5.4081116 1.3176422 7.360153 3.6630707c1.9520264 2.3454285 3.0486603 5.52652 3.0486603 8.84346l0 0c0 6.9071655 -4.660187 12.5065155 -10.408813 12.5065155l0 0c-5.7486267 0 -10.408813 -5.59935 -10.408813 -12.5065155z" fill-rule="evenodd"/><path fill="#ffffff" d="m249.76538 200.9466l0 0c0 -25.45578 17.174744 -46.091766 38.36084 -46.091766l0 0c10.17392 0 19.931152 4.856079 27.125214 13.4999695c7.194031 8.643875 11.235626 20.367493 11.235626 32.591797l0 0c0 25.45578 -17.174744 46.091766 -38.36084 46.091766l0 0c-21.186096 0 -38.36084 -20.635986 -38.36084 -46.091766z" fill-rule="evenodd"/><path fill="#000000" d="m268.67474 200.9466l0 0c0 -12.907761 8.70871 -23.371582 19.451477 -23.371582l0 0c5.158844 0 10.106415 2.4623566 13.754272 6.8453827c3.6478577 4.383026 5.6972046 10.327667 5.6972046 16.5262l0 0c0 12.907761 -8.70871 23.371582 -19.451477 23.371582l0 0c-10.742767 0 -19.451477 -10.463821 -19.451477 -23.371582z" fill-rule="evenodd"/><path fill="#ffffff" d="m282.82062 192.96935l0 0c0 -6.9071655 4.660187 -12.506531 10.408813 -12.506531l0 0c2.7605896 0 5.4081116 1.3176422 7.360138 3.6630707c1.9520569 2.3454285 3.0486755 5.52652 3.0486755 8.84346l0 0c0 6.9071655 -4.660187 12.5065155 -10.408813 12.5065155l0 0c-5.7486267 0 -10.408813 -5.59935 -10.408813 -12.5065155z" fill-rule="evenodd"/><path fill="#000000" d="m205.24335 286.4477c7.895752 -9.221405 72.09552 -0.8004761 77.0397 10.105103c4.9441833 10.905579 -34.534622 57.012543 -47.374573 55.32837c-12.839951 -1.6842041 -37.560898 -56.212067 -29.66513 -65.43347z" fill-rule="evenodd"/><path fill="#eb620e" d="m282.85345 116.62674c0.5770569 -1.662468 15.11026 -7.899811 21.453735 -6.6527786c6.3434753 1.2470322 17.184174 12.472511 16.607117 14.134987c-0.5770569 1.662468 -13.726044 -2.913124 -20.069519 -4.160164c-6.3434753 -1.2470322 -18.56842 -1.6595764 -17.991333 -3.3220444z" fill-rule="evenodd"/><path fill="#eb620e" d="m214.45923 116.62584c-0.50434875 -1.6624756 -13.20636 -7.8998184 -18.75055 -6.6527786c-5.5442047 1.2470322 -15.018982 12.472511 -14.514633 14.134979c0.50434875 1.662468 11.9965515 -2.913124 17.540741 -4.1601562c5.5442047 -1.2470322 16.228806 -1.6595764 15.724442 -3.3220444z" fill-rule="evenodd"/><path fill="#ed8a8a" d="m304.32495 275.48273l0 0c0 -7.3495483 4.9708557 -13.307556 11.102722 -13.307556l0 0c2.944641 0 5.7686768 1.4020386 7.85083 3.897705c2.0821838 2.495636 3.2519226 5.8804626 3.2519226 9.409851l0 0c0 7.349579 -4.9708557 13.307587 -11.102753 13.307587l0 0c-6.1318665 0 -11.102722 -5.958008 -11.102722 -13.307587z" fill-rule="evenodd"/><path fill="#ed8a8a" d="m163.97575 275.48273l0 0c0 -7.3495483 4.970871 -13.307556 11.102737 -13.307556l0 0c2.944641 0 5.7686615 1.4020386 7.85083 3.897705c2.0821686 2.495636 3.2519226 5.8804626 3.2519226 9.409851l0 0c0 7.349579 -4.970871 13.307587 -11.102753 13.307587l0 0c-6.1318665 0 -11.102737 -5.958008 -11.102737 -13.307587z" fill-rule="evenodd"/></g></svg>