<svg version="1.1" viewBox="0.0 0.0 480.0 480.0" fill="none" stroke="none" stroke-linecap="square" stroke-miterlimit="10" xmlns:xlink="http://www.w3.org/1999/xlink" xmlns="http://www.w3.org/2000/svg"><clipPath id="g2bd233d577d_0_116.0"><path d="m0 0l480.0 0l0 480.0l-480.0 0l0 -480.0z" clip-rule="nonzero"/></clipPath><g clip-path="url(#g2bd233d577d_0_116.0)"><path fill="#000000" fill-opacity="0.0" d="m0 0l480.0 0l0 480.0l-480.0 0z" fill-rule="evenodd"/><path fill="#df4649" d="m240.0002 142.46123c95.249344 -222.08923 466.7218 0 0 285.54333c-466.7218 -285.54333 -95.249344 -507.63257 0 -285.54333z" fill-rule="evenodd"/><path fill="#f28847" d="m24.278786 283.18372c5.583914 -23.549194 49.6091 -48.939148 64.42605 -56.515976c14.816956 -7.5768127 22.114311 3.6833038 24.475662 11.055023c2.3613586 7.3717194 -14.816948 29.69371 -10.307518 33.17531c4.50943 3.481598 22.33207 -14.743439 37.364098 -12.285645c15.032028 2.4578247 42.734726 13.51712 52.828064 27.032501c10.093353 13.515381 15.677261 35.425446 7.7319946 54.059845c-7.9452667 18.63443 -31.13765 53.036926 -55.40361 57.746582c-24.26596 4.709656 -70.00638 -10.44397 -90.19217 -29.488586c-20.185791 -19.044617 -36.506485 -61.22989 -30.92257 -84.77905z" fill-rule="evenodd"/><path fill="#f28847" d="m461.38644 283.18488c-5.5839233 -23.549164 -49.6091 -48.939133 -64.426056 -56.51596c-14.816956 -7.5768127 -22.114319 3.6833038 -24.475647 11.055023c-2.3613586 7.3717194 14.816925 29.693695 10.307495 33.175323c-4.50943 3.481598 -22.332062 -14.743469 -37.364075 -12.285645c-15.032043 2.4577942 -42.73474 13.51709 -52.828094 27.032501c-10.093323 13.515381 -15.677246 35.425446 -7.731964 54.059845c7.9452515 18.6344 31.137634 53.036896 55.403595 57.746582c24.26596 4.709656 70.00638 -10.444 90.19217 -29.488617c20.185791 -19.044586 36.5065 -61.22989 30.922577 -84.77905z" fill-rule="evenodd"/><path fill="#bc3437" d="m59.557457 100.992386c1.2231102 2.2741013 -10.827194 10.51873 -14.505249 22.189957c-3.6780548 11.671234 -8.426651 34.61931 -7.5630875 47.837433c0.86356735 13.21814 13.647697 29.05368 12.744484 31.471344c-0.9032135 2.4176636 -13.660557 -8.236649 -18.163769 -16.965378c-4.503208 -8.728714 -9.79611 -22.742294 -8.855495 -35.406967c0.9406147 -12.664673 8.441998 -32.393333 14.499184 -40.581062c6.057186 -8.1877365 20.62082 -10.819435 21.843933 -8.545326z" fill-rule="evenodd"/><path fill="#e5bdbe" d="m427.94437 132.57542c-2.669281 0.2297821 -6.1676636 -13.515137 -16.135529 -21.13977c-9.967865 -7.624634 -30.497559 -20.420242 -43.67163 -24.608025c-13.174072 -4.1877823 -33.360962 1.18573 -35.372803 -0.5186615c-2.0118408 -1.7043915 13.12793 -8.995087 23.301758 -9.70768c10.173828 -0.7126007 25.781464 -0.1438675 37.74121 5.4320908c11.959747 5.5759583 28.327759 19.599976 34.017242 28.023651c5.689514 8.423676 2.7890625 22.288628 0.11975098 22.518394z" fill-rule="evenodd"/></g></svg>