<svg version="1.1" viewBox="0.0 0.0 480.0 480.0" fill="none" stroke="none" stroke-linecap="square" stroke-miterlimit="10" xmlns:xlink="http://www.w3.org/1999/xlink" xmlns="http://www.w3.org/2000/svg"><clipPath id="g2bd233d577d_0_130.0"><path d="m0 0l480.0 0l0 480.0l-480.0 0l0 -480.0z" clip-rule="nonzero"/></clipPath><g clip-path="url(#g2bd233d577d_0_130.0)"><path fill="#000000" fill-opacity="0.0" d="m0 0l480.0 0l0 480.0l-480.0 0z" fill-rule="evenodd"/><path fill="#eb620e" d="m379.84607 160.09695c7.327942 5.3476562 19.646942 30.938034 30.585358 41.251602c10.938416 10.313568 25.168884 13.88089 35.045044 20.629791c9.87619 6.7489166 22.194092 16.044296 24.212036 19.863663c2.0179443 3.8193665 -12.741669 -1.1492004 -12.10434 3.0525665c0.6373291 4.201782 15.609955 13.881546 15.928345 22.158066c0.3183899 8.27655 -6.1592407 23.427002 -14.018005 27.501068c-7.858795 4.0740967 -22.727142 -1.274231 -33.134735 -3.056549c-10.407562 -1.7823181 -19.540466 -2.1627197 -29.3107 -7.6374207c-9.770233 -5.4746704 -24.213135 -6.1111145 -29.3107 -25.210632c-5.0975647 -19.099518 -3.2926025 -72.961105 -1.2746582 -89.38646c2.0179443 -16.425354 6.0543823 -14.513351 13.382355 -9.165695z" fill-rule="evenodd"/><path fill="#eb620e" d="m102.78464 167.5935c-7.533615 5.3476562 -20.19838 30.938034 -31.443787 41.251602c-11.245403 10.313568 -25.875263 13.88089 -36.02863 20.629791c-10.153368 6.7489166 -22.816992 16.044281 -24.891575 19.863663c-2.074583 3.8193665 13.0992985 -1.1492004 12.444077 3.0525665c-0.65522194 4.201767 -16.04808 13.881546 -16.375406 22.158066c-0.32732582 8.27652 6.3320975 23.427002 14.411453 27.501068c8.079353 4.0740967 23.365004 -1.274231 34.064674 -3.056549c10.699669 -1.7823181 20.088898 -2.1627502 30.133347 -7.6374207c10.044449 -5.4746704 24.892715 -6.1111145 30.133347 -25.210632c5.240631 -19.099518 3.385025 -72.961105 1.3104401 -89.38646c-2.0745773 -16.42537 -6.2243195 -14.513351 -13.757942 -9.165695z" fill-rule="evenodd"/><path fill="#f28847" d="m228.01244 64.140045c-27.949844 3.055893 -61.795532 12.861366 -84.504745 34.380325c-22.70922 21.518959 -42.361305 58.190384 -51.750534 94.733444c-9.389229 36.54306 -8.51503 90.27362 -4.584839 124.52493c3.930191 34.251312 2.836441 62.392822 28.16597 80.98291c25.329529 18.590088 79.04744 31.449463 123.8112 30.557648c44.76378 -0.8918457 118.459366 -8.150848 144.77147 -35.90863c26.312073 -27.757782 14.847687 -90.020905 13.100983 -130.63806c-1.7466736 -40.61714 -9.278595 -82.633545 -23.581116 -113.06482c-14.302521 -30.431274 -37.996002 -55.261513 -62.23407 -69.522804c-24.238068 -14.2612915 -55.244476 -19.100845 -83.19432 -16.044945z" fill-rule="evenodd"/><path fill="#eb620e" d="m89.33788 419.60263c19.999718 15.838348 93.17416 4.201416 116.65545 1.4813538c23.481293 -2.7200317 21.365768 -9.705963 24.23233 -17.801666c2.866562 -8.095673 2.6177979 -22.210571 -7.0329742 -30.77243c-9.650772 -8.56189 -28.005386 -12.856171 -50.87166 -20.598785c-22.866272 -7.7426453 -72.49544 -37.138977 -86.32596 -25.857056c-13.830528 11.281921 -16.656898 77.710266 3.3428116 93.548584z" fill-rule="evenodd"/><path fill="#eb620e" d="m408.16565 411.529c-18.661285 19.86261 -94.54108 12.285156 -118.77969 11.023193c-24.238617 -1.2619629 -22.844849 -9.487457 -26.65207 -18.59497c-3.80719 -9.107544 -5.0956116 -25.405518 3.808899 -36.05014c8.90448 -10.644653 27.149658 -17.062653 49.618134 -27.817749c22.468506 -10.755096 69.85867 -48.619476 85.19278 -36.71286c15.334137 11.906616 25.473267 88.28992 6.8119507 108.15253z" fill-rule="evenodd"/><path fill="#000000" d="m165.54951 181.94162c1.39711 -1.1405487 7.8928833 6.845352 15.927185 8.311783c8.034302 1.4664307 23.615921 2.5238495 32.27864 0.4868164c8.66272 -2.0370483 18.021149 -13.116745 19.697708 -12.709076c1.6765442 0.40766907 -4.2592316 10.918091 -9.638428 15.155121c-5.3792114 4.237015 -14.183365 9.615265 -22.636795 10.267014c-8.453445 0.65174866 -22.145813 -2.7712555 -28.083862 -6.356537c-5.9380493 -3.585266 -8.941574 -14.014557 -7.544449 -15.155121z" fill-rule="evenodd"/><path fill="#000000" d="m317.51376 181.9398c-1.3970947 -1.140564 -7.892853 6.845337 -15.927185 8.311768c-8.034302 1.4664307 -23.615906 2.5238495 -32.278625 0.4868164c-8.66272 -2.0370483 -18.021164 -13.116745 -19.697708 -12.709076c-1.6765442 0.40766907 4.2592316 10.918091 9.638443 15.155121c5.379181 4.237015 14.18335 9.615265 22.63678 10.267014c8.45343 0.65174866 22.145813 -2.7712555 28.083862 -6.356537c5.9380493 -3.585266 8.941559 -14.014557 7.5444336 -15.155106z" fill-rule="evenodd"/><path fill="#f28847" d="m221.25464 80.29667c-16.922852 -7.7670975 -29.914948 -51.69419 -30.133347 -55.768276c-0.2184143 -4.0740833 21.50769 28.777298 28.822906 31.323769c7.315216 2.5464668 12.338577 -16.044952 15.068375 -16.044952c2.7298126 0 -7.969864 13.498482 1.3104553 16.044952c9.280304 2.5464668 48.36664 -2.0390396 54.3714 -0.76613617c6.0047913 1.2728996 -18.670105 5.729389 -18.342773 8.403545c0.32733154 2.6741638 28.822906 4.840225 20.306732 7.641403c-8.516174 2.8011856 -54.480896 16.932793 -71.40375 9.165695z" fill-rule="evenodd"/></g></svg>