<svg version="1.1" viewBox="0.0 0.0 480.0 480.0" fill="none" stroke="none" stroke-linecap="square" stroke-miterlimit="10" xmlns:xlink="http://www.w3.org/1999/xlink" xmlns="http://www.w3.org/2000/svg"><clipPath id="g2c02cd5e48c_0_0.0"><path d="m0 0l480.0 0l0 480.0l-480.0 0l0 -480.0z" clip-rule="nonzero"/></clipPath><g clip-path="url(#g2c02cd5e48c_0_0.0)"><path fill="#000000" fill-opacity="0.0" d="m0 0l480.0 0l0 480.0l-480.0 0z" fill-rule="evenodd"/><path fill="#eb620e" d="m0 239.99475l0 0c0 -132.54834 107.45166 -240.0 240.0 -240.0l0 0c63.651947 0 124.6969 25.28564 169.70563 70.29437c45.008728 45.008728 70.29437 106.053665 70.29437 169.70563l0 0c0 132.54834 -107.45166 240.0 -240.0 240.0l0 0c-132.54834 0 -240.0 -107.45166 -240.0 -240.0z" fill-rule="evenodd"/><path fill="#f28847" d="m255.63876 439.60574c3.0037231 -3.7424927 25.522125 -7.5883484 47.9606 -20.924255c22.438507 -13.335907 64.80551 -41.021637 86.67035 -59.091187c21.864807 -18.069519 39.770844 -46.64682 44.518616 -49.32599c4.7477417 -2.6791382 -4.3678284 18.999146 -16.032104 33.25113c-11.664276 14.251953 -31.756958 35.99057 -53.95349 52.260773c-22.196533 16.270172 -61.031647 38.05539 -79.22565 45.36032c-18.194 7.3049316 -32.94203 2.211731 -29.938324 -1.5307922z" fill-rule="evenodd"/><path fill="#fed8c0" d="m216.1452 152.73927l0 184.66692l0 0c0 24.191864 -17.063232 43.803223 -38.111816 43.803223c-21.048569 0 -38.1118 -19.611359 -38.1118 -43.803223l0 -184.66692l0 0c0 -24.191849 17.063232 -43.803238 38.1118 -43.803238c21.048584 0 38.111816 19.61139 38.111816 43.803238z" fill-rule="evenodd"/><path fill="#fed8c0" d="m345.8589 152.73927l0 184.66692l0 0c0 24.191864 -17.063263 43.803223 -38.111816 43.803223c-21.048584 0 -38.111816 -19.611359 -38.111816 -43.803223l0 -184.66692l0 0c0 -24.191849 17.063232 -43.803238 38.111816 -43.803238c21.048553 0 38.111816 19.61139 38.111816 43.803238z" fill-rule="evenodd"/></g></svg>