<svg version="1.1" viewBox="0.0 0.0 480.0 480.0" fill="none" stroke="none" stroke-linecap="square" stroke-miterlimit="10" xmlns:xlink="http://www.w3.org/1999/xlink" xmlns="http://www.w3.org/2000/svg"><clipPath id="g2c015b8fff0_0_10.0"><path d="m0 0l480.0 0l0 480.0l-480.0 0l0 -480.0z" clip-rule="nonzero"/></clipPath><g clip-path="url(#g2c015b8fff0_0_10.0)"><path fill="#000000" fill-opacity="0.0" d="m0 0l480.0 0l0 480.0l-480.0 0z" fill-rule="evenodd"/><path fill="#ffffff" d="m8.031496 106.11559l0 0c0 -31.330925 25.398733 -56.72966 56.72966 -56.72966l20.593178 0l0 0l115.984245 0l213.90025 0c15.045654 0 29.475067 5.97686 40.113953 16.61573c10.638855 10.638878 16.615723 25.06829 16.615723 40.11393l0 141.82416l0 0l0 85.0945l0 0c0 31.330902 -25.398743 56.729645 -56.729675 56.729645l-213.90025 0l-134.36389 51.325592l18.379639 -51.325592l-20.593178 0c-31.330925 0 -56.72966 -25.398743 -56.72966 -56.729645l0 0l0 -85.0945l0 0z" fill-rule="evenodd"/><path stroke="#999999" stroke-width="4.0" stroke-linejoin="round" stroke-linecap="butt" d="m8.031496 106.11559l0 0c0 -31.330925 25.398733 -56.72966 56.72966 -56.72966l20.593178 0l0 0l115.984245 0l213.90025 0c15.045654 0 29.475067 5.97686 40.113953 16.61573c10.638855 10.638878 16.615723 25.06829 16.615723 40.11393l0 141.82416l0 0l0 85.0945l0 0c0 31.330902 -25.398743 56.729645 -56.729675 56.729645l-213.90025 0l-134.36389 51.325592l18.379639 -51.325592l-20.593178 0c-31.330925 0 -56.72966 -25.398743 -56.72966 -56.729645l0 0l0 -85.0945l0 0z" fill-rule="evenodd"/></g></svg>