<svg version="1.1" viewBox="0.0 0.0 480.0 480.0" fill="none" stroke="none" stroke-linecap="square" stroke-miterlimit="10" xmlns:xlink="http://www.w3.org/1999/xlink" xmlns="http://www.w3.org/2000/svg"><clipPath id="g2c02cd5e48c_0_53.0"><path d="m0 0l480.0 0l0 480.0l-480.0 0l0 -480.0z" clip-rule="nonzero"/></clipPath><g clip-path="url(#g2c02cd5e48c_0_53.0)"><path fill="#000000" fill-opacity="0.0" d="m0 0l480.0 0l0 480.0l-480.0 0z" fill-rule="evenodd"/><path fill="#000000" fill-opacity="0.0" d="m356.447 68.69955l1.7637634 0l0 5.1023636l-1.7637634 0z" fill-rule="evenodd"/><path fill="#eb620e" d="m356.83527 214.36389c35.602997 77.96524 9.945618 170.08505 -60.928436 218.75623c-70.87404 48.671143 -166.636 39.93338 -227.40518 -20.749542c-60.76918 -60.682922 -69.11523 -155.9054 -19.81929 -226.12402c49.295937 -70.21864 142.09436 -95.29274 220.36769 -59.543266l-16.519073 35.729454c-60.953445 -27.841522 -133.19684 -8.358368 -171.54822 46.26445c-38.35138 54.622818 -31.80801 128.7144 15.537804 175.9369c47.345802 47.222504 121.91088 54.028137 177.06125 16.160553c55.15036 -37.867584 75.06378 -109.54443 47.286133 -170.20291z" fill-rule="evenodd"/><path fill="#eb620e" d="m304.279 240.66655c22.713135 52.48854 4.5300293 113.6143 -43.249023 145.3893c-47.779068 31.775024 -111.561035 25.159393 -151.70721 -15.735474c-40.14617 -40.894867 -45.235054 -104.43445 -12.104034 -151.13068c33.131012 -46.696243 95.05621 -63.264145 147.29083 -39.407227l-11.066666 23.93634c-40.676468 -18.579681 -88.88522 -5.7061615 -114.66078 30.618637c-25.775558 36.324814 -21.783173 85.76424 9.495575 117.587875c31.278748 31.823608 80.94313 36.975616 118.12285 12.253632c37.179733 -24.721954 51.294876 -72.28299 33.571793 -113.12019z" fill-rule="evenodd"/><path fill="#eb620e" d="m264.20023 259.3741l0 0c13.591888 33.164795 1.5527344 71.25137 -28.680374 90.73193c-30.233109 19.48059 -70.12714 14.856964 -95.037766 -11.014679c-24.910645 -25.871613 -27.807083 -65.68918 -6.90007 -94.85562c20.907013 -29.166458 59.716675 -39.4498 92.45451 -24.497574l-6.962326 15.0589905c-25.49385 -11.644745 -55.707214 -3.6545258 -71.97276 19.033905c-16.265549 22.68843 -13.991425 53.67003 5.417282 73.80275c19.408722 20.132751 50.472855 23.733093 73.99942 8.576538c23.526566 -15.156525 32.873886 -44.7912 22.266739 -70.59418z" fill-rule="evenodd"/><path fill="#eb620e" d="m302.52527 151.91412c-23.75769 27.888351 -71.64693 90.91719 -90.91437 108.2081c-19.267426 17.290894 -17.581665 -11.899963 -24.690216 -4.4627533c-7.108551 7.43721 -15.902847 38.30211 -17.96106 49.086044c-2.0582123 10.783936 -5.4255524 14.502197 5.611801 15.617523c11.0373535 1.1153564 53.316864 -4.0911865 60.612335 -8.925476c7.295456 -4.8342896 -19.832352 -8.366791 -16.839539 -20.080292c2.9928284 -11.71347 10.664215 -21.0112 34.796432 -50.200684c24.132233 -29.189468 84.18173 -103.74121 109.99695 -124.93615c25.815186 -21.194931 28.61972 6.504898 44.894318 -2.233429c16.274597 -8.738335 54.06247 -41.086685 52.753326 -50.196568c-1.3091431 -9.109886 -47.700928 4.8336067 -60.608185 -4.462742c-12.907257 -9.296349 -7.8562317 -50.571556 -16.835358 -51.315346c-8.9791565 -0.74379015 -32.175385 32.72265 -37.03949 46.852608c-4.864105 14.129955 15.151001 21.752254 7.8548584 37.92712c-7.296173 16.174858 -27.874115 31.233688 -51.631805 59.122047z" fill-rule="evenodd"/></g></svg>