<svg version="1.1" viewBox="0.0 0.0 480.0 480.0" fill="none" stroke="none" stroke-linecap="square" stroke-miterlimit="10" xmlns:xlink="http://www.w3.org/1999/xlink" xmlns="http://www.w3.org/2000/svg"><clipPath id="g2bfeccd4c4a_0_0.0"><path d="m0 0l480.0 0l0 480.0l-480.0 0l0 -480.0z" clip-rule="nonzero"/></clipPath><g clip-path="url(#g2bfeccd4c4a_0_0.0)"><path fill="#000000" fill-opacity="0.0" d="m0 0l480.0 0l0 480.0l-480.0 0z" fill-rule="evenodd"/><path fill="#4285f4" d="m165.93414 65.78029c-20.563828 35.929947 -65.30793 110.27733 -81.352455 154.56917c-16.044533 44.29184 -21.242233 75.929474 -14.914703 111.181854c6.3275223 35.25238 24.632553 76.37918 52.87986 100.33249c28.247314 23.953308 76.380035 42.709747 116.604004 43.3873c40.22397 0.67755127 95.81488 -9.493408 124.739746 -39.32196c28.924866 -29.828552 51.747498 -95.5845 48.80945 -139.64935c-2.9380493 -44.064865 -39.320282 -84.967224 -66.437775 -124.73976c-27.117462 -39.772552 -73.21753 -86.10045 -96.26715 -113.89549c-23.049606 -27.795042 -28.020325 -54.23072 -42.030487 -52.874763c-14.010162 1.3559594 -21.46666 25.080572 -42.030487 61.010517z" fill-rule="evenodd"/><path fill="#cfe2f3" d="m241.05176 434.53082c2.117813 -3.759552 23.73639 -2.5841064 43.024445 -12.937744c19.288055 -10.353668 55.112427 -32.941437 72.70392 -49.184204c17.591522 -16.242798 28.730194 -46.25476 32.845154 -48.272583c4.11499 -2.0177917 0.13543701 21.907288 -8.155334 36.16571c-8.290741 14.258453 -23.239044 35.410217 -41.589172 49.38495c-18.350098 13.974762 -52.039948 30.322937 -68.511444 34.463562c-16.471497 4.1406555 -32.43538 -5.8601074 -30.317566 -9.61969z" fill-rule="evenodd"/></g></svg>